<?xml version="1.0" standalone="no"?>
<!DOCTYPE svg PUBLIC "-//W3C//DTD SVG 20010904//EN"
 "http://www.w3.org/TR/2001/REC-SVG-20010904/DTD/svg10.dtd">
<svg version="1.0" xmlns="http://www.w3.org/2000/svg"
 width="300.000000pt" height="303.000000pt" viewBox="0 0 300.000000 303.000000"
 preserveAspectRatio="xMidYMid meet">
<metadata>
Created by potrace 1.10, written by Peter Selinger 2001-2011
</metadata>
<g transform="translate(0.000000,303.000000) scale(0.100000,-0.100000)"
fill="#000000" stroke="none">
<path d="M1322 2560 c0 -43 12 -89 19 -75 3 6 0 33 -6 60 -12 46 -13 47 -13
15z"/>
<path d="M1344 2574 c18 -42 25 -77 19 -88 -3 -6 0 -6 7 1 11 10 11 20 1 52
-6 22 -17 43 -23 47 -8 5 -9 1 -4 -12z"/>
<path d="M2075 2528 c-16 -12 -45 -35 -63 -52 -26 -25 -36 -28 -50 -20 -9 6
-34 9 -54 7 -21 -2 -66 1 -100 7 -62 9 -63 9 -89 -19 l-26 -29 23 -5 c20 -3
24 0 24 20 0 15 5 23 13 21 129 -38 138 -42 132 -57 -3 -11 0 -9 10 3 8 11 15
26 15 33 0 20 14 16 39 -11 l23 -24 -34 -59 c-19 -32 -38 -67 -42 -78 -14 -39
27 15 59 77 27 53 54 87 138 176 35 37 26 42 -18 10z"/>
<path d="M2070 2433 c-34 -60 -78 -136 -98 -170 -20 -35 -39 -63 -43 -63 -4 0
-29 10 -57 23 l-50 23 15 34 c7 19 21 42 29 51 14 15 11 19 -28 37 -24 12 -55
24 -70 27 -42 11 -36 -18 6 -33 38 -14 54 -45 36 -67 -14 -17 -85 -21 -75 -4
11 18 -25 47 -66 54 -21 4 -39 10 -39 15 0 5 -19 11 -41 15 -26 5 -37 10 -29
15 9 6 7 11 -9 19 -11 7 -21 16 -21 22 0 6 14 1 30 -11 17 -12 30 -16 30 -11
0 6 -15 20 -32 32 -26 15 -44 19 -83 15 -100 -10 -135 -19 -152 -38 -52 -56
-68 -68 -89 -68 -12 0 -29 -6 -36 -13 -7 -7 -29 -19 -48 -27 -19 -7 -46 -21
-60 -30 -14 -9 -37 -21 -52 -27 -14 -7 -36 -20 -49 -30 -12 -10 -33 -27 -47
-39 -31 -26 -25 -59 10 -48 l21 6 -21 -27 c-24 -31 -29 -50 -9 -39 6 4 3 -2
-7 -14 -11 -12 -22 -20 -25 -17 -3 4 1 10 9 16 10 6 6 7 -16 3 -24 -5 -36 0
-63 25 -18 17 -39 31 -46 31 -23 0 -76 -32 -72 -43 2 -7 -15 -40 -39 -74 -24
-34 -47 -70 -50 -80 -3 -10 4 -2 16 17 12 19 25 37 29 40 17 14 81 100 81 109
0 18 25 13 45 -9 10 -11 26 -22 36 -25 18 -6 18 -7 1 -30 -16 -21 -18 -22 -34
-8 -11 10 -18 12 -18 5 0 -7 -8 -12 -17 -12 -15 0 -14 2 3 14 18 14 18 16 2
32 -15 15 -17 15 -28 -7 -7 -13 -21 -34 -32 -46 -16 -17 -18 -25 -8 -40 9 -14
10 -14 6 -1 -2 9 4 24 15 34 10 9 19 12 19 6 0 -6 6 -9 14 -6 21 8 56 -14 56
-34 0 -10 -7 -28 -16 -40 -8 -12 -13 -22 -9 -22 6 0 -24 -49 -42 -68 -7 -7
-13 -25 -13 -38 0 -14 -4 -23 -10 -19 -5 3 -8 11 -6 18 1 7 1 9 -1 5 -3 -5 -9
-8 -14 -8 -17 0 -9 22 14 40 12 10 31 33 41 51 l19 34 -34 -30 c-67 -60 -74
-83 -34 -109 24 -16 25 -16 45 16 11 18 23 44 27 56 4 18 8 21 14 10 7 -11 9
-10 9 1 0 11 5 10 19 -5 14 -14 16 -24 9 -37 -14 -27 -21 -194 -11 -241 11
-50 33 -65 67 -46 14 7 26 21 26 30 0 28 11 30 44 6 28 -21 42 -23 139 -23 93
0 110 2 120 17 10 17 13 17 54 -3 49 -24 76 -17 81 22 l4 22 22 -24 23 -25 17
29 c9 16 13 29 7 29 -5 0 -11 -5 -13 -11 -2 -7 -19 26 -37 72 -18 46 -35 90
-38 97 -9 22 36 13 51 -11 9 -12 22 -47 30 -77 l14 -55 14 35 c8 19 21 53 29
75 12 32 20 41 42 43 15 2 27 2 27 0 0 -2 -20 -50 -43 -108 -37 -89 -46 -105
-65 -104 -12 0 -22 -5 -22 -13 0 -15 46 -18 55 -3 4 6 17 4 35 -5 41 -21 52
-19 84 14 30 31 48 31 78 0 13 -12 33 -17 78 -16 53 0 64 3 77 24 18 27 30 29
52 9 9 -8 44 -18 77 -21 55 -7 64 -5 83 14 24 24 50 18 89 -19 20 -19 25 -20
49 -8 36 17 39 39 15 91 -11 23 -23 53 -27 67 -8 27 -42 80 -60 93 -17 13 -67
-2 -86 -26 -36 -44 -40 -47 -50 -47 -5 0 -7 11 -3 24 4 18 0 28 -17 40 -32 22
-55 20 -73 -6 l-16 -22 -38 22 c-35 19 -40 20 -60 6 -12 -8 -22 -26 -22 -40 0
-33 -14 -30 -46 11 -31 41 -58 51 -99 35 -19 -7 -31 -8 -39 0 -18 18 -59 11
-87 -16 l-27 -26 -23 26 c-19 22 -31 26 -68 25 -26 -1 -74 0 -108 0 -34 1 -72
-3 -83 -9 -14 -7 -26 -8 -39 0 -11 5 -28 10 -37 10 -10 0 -25 6 -33 14 -9 8
-27 16 -41 18 -20 2 -28 -4 -42 -32 -10 -19 -20 -34 -23 -33 -3 1 -17 16 -31
32 l-25 30 31 18 c25 14 31 23 28 45 -4 27 17 48 25 25 2 -7 7 -9 11 -6 4 4
-7 30 -23 58 l-31 51 47 42 c63 59 81 71 99 64 8 -3 12 -1 9 4 -3 5 18 22 47
37 36 18 47 28 35 31 -18 4 -107 -43 -165 -86 -18 -14 -35 -23 -38 -20 -11 12
131 100 214 134 36 14 45 15 52 3 11 -17 3 -29 -21 -29 -24 0 -25 -24 0 -49
49 -49 29 -91 -46 -91 -35 0 -44 3 -40 14 3 8 0 17 -7 19 -18 7 -16 -26 3 -40
14 -11 14 -12 1 -13 -9 0 -33 -14 -53 -31 -27 -22 -42 -28 -49 -21 -7 7 0 20
23 42 l34 32 -37 -27 c-38 -27 -47 -48 -28 -60 7 -4 7 -12 0 -25 -13 -24 -13
-40 0 -40 6 0 10 7 10 15 0 8 5 15 10 15 6 0 21 11 33 25 12 14 33 28 46 30
14 2 27 9 31 14 9 16 26 -2 33 -35 3 -18 1 -36 -6 -44 -9 -10 -9 -11 3 -8 21
7 17 73 -5 98 -18 20 -17 20 19 20 27 0 43 7 62 27 14 15 22 33 19 41 -5 12
-3 13 10 2 13 -11 13 -15 3 -23 -10 -7 -9 -8 3 -4 10 3 31 -8 53 -29 30 -28
40 -33 56 -24 25 14 30 13 30 -5 0 -13 3 -13 13 -4 11 11 10 16 -5 31 -10 10
-18 24 -18 31 0 6 8 2 18 -11 14 -18 20 -20 30 -10 17 17 15 39 -3 32 -8 -4
-15 -1 -15 6 0 6 -4 9 -9 6 -11 -7 -9 13 3 33 5 8 3 16 -5 22 -11 7 -9 9 7 9
12 0 26 -10 32 -22 9 -19 11 -20 11 -5 1 13 6 17 19 13 34 -10 102 -10 113 1
6 6 18 9 25 6 7 -3 21 2 29 11 32 31 82 14 57 -19 -10 -15 -143 -77 -150 -71
-7 8 -9 6 70 46 37 19 66 36 63 38 -4 5 -224 -105 -240 -119 -5 -6 7 -7 32 -4
36 4 46 1 67 -21 13 -15 32 -43 41 -63 17 -37 58 -75 76 -69 5 2 -17 42 -50
89 l-59 86 41 17 c23 10 63 28 89 41 45 23 47 24 88 8 29 -12 40 -21 37 -32
-3 -9 -8 -25 -11 -36 -3 -11 5 3 18 30 14 28 25 52 25 55 1 4 -15 12 -34 19
-33 11 -48 31 -25 31 18 0 130 -53 130 -61 0 -4 -10 -25 -22 -45 -12 -21 -17
-35 -11 -31 15 9 63 -31 63 -53 0 -9 6 -23 14 -29 21 -18 53 43 35 65 -8 10
-9 18 -2 25 16 16 42 -2 101 -65 36 -41 49 -61 45 -76 -5 -19 -10 -16 -52 25
-44 44 -46 45 -51 23 -3 -13 -14 -37 -24 -55 -18 -29 -25 -32 -70 -33 -143 -2
-157 -4 -152 -17 8 -21 -5 -15 -26 12 -11 14 -24 25 -31 25 -6 0 -20 9 -32 20
-21 19 -21 19 -23 -5 -1 -18 7 -29 38 -46 25 -14 40 -30 41 -43 1 -17 2 -18 6
-3 5 20 23 23 23 5 0 -7 5 -5 11 5 8 14 25 17 97 17 93 0 132 7 132 22 0 5 -6
6 -12 2 -8 -4 -10 -3 -5 2 5 5 12 9 16 9 4 0 15 8 25 18 16 15 20 16 39 2 26
-18 67 -20 67 -2 0 6 9 -1 19 -18 10 -16 27 -37 38 -46 19 -15 20 -15 21 21 2
32 -5 44 -48 88 -28 28 -50 58 -50 66 0 15 107 107 119 103 4 -1 24 18 46 42
24 27 32 40 19 33 -11 -6 -27 -18 -34 -28 -26 -30 -52 -33 -77 -7 -13 12 -31
23 -40 23 -8 0 -36 22 -62 48 -28 30 -53 47 -63 44 -35 -7 -13 59 57 173 12
20 28 85 21 85 -2 0 -32 -48 -66 -107z m-544 -10 c7 -10 14 -21 14 -24 0 -3
-39 -9 -87 -12 -49 -4 -98 -10 -110 -13 -17 -5 -23 -2 -23 9 0 16 34 29 124
47 62 12 68 11 82 -7z m-6 -78 c-7 -8 -22 -16 -34 -16 -17 -1 -17 -2 -3 -6 26
-7 20 -23 -9 -23 -23 0 -25 3 -20 24 5 22 4 24 -22 17 -17 -5 -27 -14 -27 -27
0 -16 -15 -23 -84 -41 -47 -12 -88 -20 -92 -17 -16 9 -21 66 -8 75 8 4 16 3
20 -3 4 -7 28 -5 75 6 95 21 102 22 162 24 46 1 52 -1 42 -13z m153 -21 c23
-4 37 -12 37 -22 0 -11 -8 -13 -37 -8 -21 3 -62 6 -90 6 -40 0 -53 4 -53 15 0
16 70 21 143 9z m-473 -28 c0 -2 -33 -20 -74 -40 -41 -20 -96 -51 -123 -69
-68 -47 -73 -49 -73 -38 0 5 21 25 47 43 91 63 223 125 223 104z m548 -39 c29
-7 52 -17 50 -22 -4 -12 -16 -11 -93 10 -33 9 -106 17 -162 18 -94 2 -102 0
-97 -15 8 -27 -5 -41 -24 -26 -12 10 -14 10 -8 1 4 -8 2 -13 -8 -13 -8 0 -21
-6 -28 -13 -7 -7 -22 -16 -33 -21 -11 -4 -16 -4 -12 0 4 4 0 16 -10 26 -14 15
-14 18 -1 18 8 0 27 14 43 31 l28 32 151 -6 c83 -4 175 -12 204 -20z m337 -19
c19 -13 33 -29 30 -36 -3 -7 2 -15 10 -18 10 -4 12 -11 5 -22 -26 -45 -25 -45
-76 -6 -27 20 -48 41 -46 46 4 13 33 58 38 58 2 0 20 -10 39 -22z m-357 -8
c45 -17 41 -34 -5 -26 -21 4 -89 9 -150 13 -91 5 -113 9 -113 21 0 13 17 14
118 9 64 -3 132 -11 150 -17z m-441 -34 c-7 -18 12 -36 39 -36 13 0 30 -10 38
-22 20 -29 20 -42 0 -34 -8 3 -12 2 -9 -3 3 -5 1 -13 -5 -16 -13 -8 -47 31
-56 63 -4 13 -14 22 -25 22 -21 0 -26 25 -6 33 22 9 29 7 24 -7z m923 -35 c0
-10 -68 -94 -79 -98 -3 -2 -12 1 -19 6 -10 6 -2 20 35 54 48 46 63 55 63 38z
m-198 -28 c10 -9 18 -21 18 -27 0 -6 -5 -5 -12 2 -7 7 -16 12 -22 12 -6 0 -5
-5 1 -11 13 -13 6 -42 -8 -33 -5 3 -9 -2 -9 -10 0 -21 -13 -20 -40 2 -20 16
-21 21 -10 41 l12 23 23 -22 24 -22 -2 21 c-1 11 -5 21 -9 21 -4 0 -8 5 -8 10
0 15 21 12 42 -7z m-608 -59 c8 -21 -1 -34 -25 -34 -24 0 -37 29 -18 41 21 13
36 11 43 -7z m-522 -84 c-22 -22 -44 -40 -47 -40 -4 0 8 18 25 40 17 22 39 40
48 40 11 0 2 -14 -26 -40z m52 12 c3 -5 -13 -28 -35 -53 -21 -24 -39 -48 -39
-54 0 -5 7 1 16 13 20 29 28 28 43 -4 10 -22 9 -28 -6 -40 -24 -18 -33 -17
-34 4 0 10 -3 12 -6 5 -7 -18 -30 -16 -37 3 -7 17 9 46 53 101 27 33 37 38 45
25z m1275 -79 c17 -25 31 -50 31 -55 0 -16 -17 -7 -28 15 -6 12 -21 37 -32 55
-12 17 -17 32 -12 32 6 0 24 -21 41 -47z m-1288 -184 l64 -81 3 76 c3 71 4 76
25 76 22 0 22 -2 20 -122 -1 -93 -4 -123 -14 -123 -7 0 -35 28 -63 62 -28 34
-53 62 -56 62 -3 1 -4 -33 -2 -74 l4 -75 -26 0 -26 0 0 140 c0 77 2 140 4 140
2 0 32 -36 67 -81z m915 -16 c25 -32 49 -59 53 -61 3 -1 6 24 6 55 0 51 2 58
20 58 19 0 20 -8 23 -102 3 -120 -1 -123 -80 -38 l-47 50 -1 -62 c0 -56 -2
-63 -20 -63 -19 0 -20 7 -20 110 0 62 4 110 9 110 6 0 31 -26 57 -57z m-716
-58 c0 -97 -1 -105 -19 -105 -18 0 -20 9 -23 105 -3 103 -3 105 20 105 21 0
22 -3 22 -105z m200 86 c15 -29 12 -72 -6 -93 -16 -17 -15 -20 9 -57 29 -43
26 -57 -7 -35 -13 8 -26 11 -29 7 -4 -3 -14 10 -22 30 -10 25 -22 37 -35 37
-17 0 -20 -7 -20 -40 0 -36 -3 -40 -24 -40 -24 0 -25 1 -25 105 l-1 105 75 0
c63 0 76 -3 85 -19z m379 -80 c22 -55 41 -102 41 -105 0 -3 -11 -6 -25 -6 -18
0 -26 7 -31 25 -7 26 -34 56 -34 36 0 -6 -7 -11 -15 -11 -9 0 -15 9 -15 21 0
16 5 20 20 16 24 -6 24 -6 4 41 l-15 37 -15 -40 c-8 -22 -22 -59 -31 -82 -13
-37 -19 -43 -43 -43 l-28 0 27 58 c25 53 40 90 55 135 3 11 16 17 34 17 28 0
32 -6 71 -99z m448 -3 c23 -56 41 -104 39 -105 -10 -10 -55 11 -59 28 -4 13
-14 19 -35 19 -25 0 -29 3 -25 20 3 11 14 20 24 20 18 0 18 2 2 35 l-17 35
-21 -52 c-12 -29 -25 -66 -30 -83 -4 -16 -10 -24 -12 -18 -3 10 -10 10 -25 2
-11 -6 -21 -9 -24 -7 -2 2 16 50 39 106 40 97 43 102 72 102 29 0 32 -5 72
-102z"/>
<path d="M1240 1705 c0 -19 5 -35 10 -35 6 0 10 16 10 35 0 19 -4 35 -10 35
-5 0 -10 -16 -10 -35z"/>
<path d="M950 2325 c-10 -12 -9 -20 3 -39 20 -30 57 -25 57 8 0 41 -36 59 -60
31z m40 -14 c13 -26 13 -31 -4 -31 -13 0 -26 20 -26 41 0 16 19 10 30 -10z"/>
<path d="M2437 2290 c-29 -31 -33 -45 -15 -56 7 -5 8 -3 3 5 -4 8 4 24 21 42
15 16 25 31 23 33 -3 3 -17 -8 -32 -24z"/>
<path d="M2323 2161 l-21 -18 28 -49 c15 -27 49 -69 74 -94 25 -24 46 -49 46
-56 0 -21 -27 -23 -45 -4 -9 10 -12 20 -7 21 5 2 -5 15 -22 29 -29 22 -30 23
-11 1 16 -18 17 -24 6 -31 -21 -12 -42 0 -36 20 3 10 0 22 -6 26 -8 4 -9 3 -5
-4 4 -7 2 -12 -3 -12 -6 0 -11 5 -11 10 0 6 -11 8 -27 4 -22 -6 -25 -4 -20 10
9 23 0 20 -13 -5 -9 -15 -8 -24 1 -35 14 -17 33 -19 23 -2 -5 7 5 2 21 -11 17
-12 36 -32 43 -44 9 -14 11 -16 8 -4 -9 30 12 18 23 -13 5 -16 15 -30 22 -30
6 0 9 -7 6 -15 -4 -8 -2 -17 3 -20 18 -11 10 29 -10 55 -21 26 -27 56 -10 45
6 -4 22 -27 35 -53 22 -40 25 -43 20 -16 -4 22 0 37 15 54 26 30 26 31 -12 78
-54 66 -82 103 -98 128 -13 21 -13 25 5 38 11 9 16 15 10 15 -5 0 -20 -8 -32
-18z"/>
<path d="M2235 2092 c-11 -9 -26 -35 -32 -56 -11 -35 -10 -42 8 -68 19 -26 39
-30 39 -7 0 6 -4 8 -9 5 -7 -5 -36 43 -29 49 2 1 14 8 27 15 21 11 26 10 37
-4 9 -12 13 -14 16 -4 3 7 -9 23 -25 37 -27 23 -28 25 -11 38 10 7 14 13 8 13
-5 -1 -18 -8 -29 -18z"/>
<path d="M1660 2062 l0 -32 71 0 c61 0 70 2 65 16 -3 9 -6 21 -6 27 0 7 -5 4
-11 -5 -15 -27 -83 -24 -103 4 -16 22 -16 22 -16 -10z"/>
<path d="M321 2001 c-16 -12 -22 -24 -18 -35 14 -35 73 -8 65 30 -4 25 -19 26
-47 5z m27 -20 c-15 -24 -28 -27 -28 -6 0 13 31 38 38 30 2 -2 -3 -12 -10 -24z"/>
<path d="M1801 1968 l1 -53 12 37 c15 49 23 56 71 61 30 3 24 4 -22 5 l-63 2
1 -52z"/>
<path d="M1316 1969 c-7 -17 -16 -30 -20 -29 -4 1 -11 -2 -14 -6 -4 -4 -1 -4
6 0 6 4 12 3 12 -3 0 -5 -6 -12 -12 -14 -8 -3 -6 -6 5 -6 9 -1 17 6 17 14 0 8
6 13 13 11 6 -1 9 -1 5 1 -3 2 -2 17 2 34 11 38 3 37 -14 -2z"/>
<path d="M2670 1755 c-8 -9 -8 -15 -2 -15 6 0 13 6 15 13 4 9 8 9 16 -3 13
-19 3 -33 -20 -27 -11 3 -19 1 -19 -4 0 -12 47 -12 55 1 7 11 -12 50 -24 50
-5 0 -14 -7 -21 -15z"/>
<path d="M2280 1744 c1 -25 30 -128 39 -137 5 -5 1 23 -10 63 -17 66 -30 98
-29 74z"/>
<path d="M2315 1715 c4 -16 12 -46 16 -65 6 -27 7 -22 3 20 -3 30 -10 60 -16
65 -7 7 -8 1 -3 -20z"/>
<path d="M610 1690 c-6 -11 -8 -26 -4 -32 4 -6 3 -8 -4 -4 -6 3 -13 2 -17 -4
-3 -5 2 -10 12 -10 12 0 22 12 29 35 12 38 1 48 -16 15z"/>
<path d="M645 1678 c-4 -18 -12 -39 -17 -45 -7 -9 -7 -13 0 -13 6 0 16 8 21
18 6 9 11 13 11 9 0 -14 40 13 40 28 0 12 -28 35 -44 35 -2 0 -8 -15 -11 -32z"/>
<path d="M2533 1663 c-6 -16 -7 -55 -3 -88 4 -33 5 -63 3 -67 -2 -5 3 -8 12
-8 12 0 15 5 9 23 -9 27 -8 146 1 155 3 3 10 0 15 -8 12 -19 13 -70 2 -70 -11
0 -3 -89 9 -110 5 -9 7 9 5 48 -2 34 0 62 5 62 17 0 19 40 3 65 -22 33 -50 32
-61 -2z"/>
<path d="M488 1623 c12 -2 22 -8 22 -12 0 -9 37 -8 46 2 4 4 19 4 33 0 14 -3
23 -3 20 1 -4 4 -38 9 -75 10 -38 2 -59 1 -46 -1z"/>
<path d="M450 1508 c0 -23 -5 -38 -12 -38 -8 0 -5 -7 6 -15 17 -13 18 -15 3
-15 -10 0 -17 -8 -17 -17 0 -14 2 -15 9 -5 4 8 10 13 12 11 2 -1 14 1 27 5 20
7 22 12 16 42 -6 34 0 41 23 26 21 -13 153 -184 153 -198 0 -8 5 -14 11 -14 8
0 10 32 7 105 l-4 105 33 0 33 0 0 -197 c0 -132 4 -193 10 -183 5 8 10 25 10
37 0 19 4 21 35 16 25 -4 41 -1 54 11 17 16 20 15 48 -1 29 -16 32 -16 57 0
16 11 26 27 26 42 0 35 24 31 41 -7 19 -43 41 -55 76 -42 24 8 28 16 31 52 3
34 7 42 22 42 19 0 24 -11 32 -64 5 -31 33 -42 70 -28 27 10 35 9 47 -2 12
-13 19 -13 52 0 29 12 42 13 59 4 12 -7 66 -12 121 -13 86 -1 101 1 121 19 39
35 47 36 81 10 36 -28 76 -33 95 -14 9 9 18 8 39 -2 16 -8 31 -15 34 -17 13
-5 60 40 58 56 -3 37 2 97 10 110 11 18 35 3 38 -24 8 -85 13 -107 23 -120 16
-19 40 -19 68 1 21 14 25 14 47 0 32 -21 117 -21 161 0 31 15 37 15 52 2 29
-26 49 -27 71 -7 12 11 21 17 21 13 0 -3 7 -1 15 6 13 11 15 7 15 -23 0 -19 6
-40 14 -46 18 -15 46 -4 46 19 0 9 9 29 20 43 14 17 20 40 20 72 0 42 2 46 20
40 15 -5 18 -3 14 9 -5 14 8 16 102 17 82 1 101 3 79 10 -36 11 -133 14 -161
5 -27 -8 -41 4 -47 42 -8 47 -25 64 -61 60 -21 -2 -34 -10 -41 -25 -12 -29
-19 -29 -61 3 -19 15 -37 24 -40 21 -6 -5 114 -147 124 -147 2 0 1 27 -3 60
l-7 60 31 0 31 0 0 -106 c0 -101 -1 -105 -20 -99 -18 6 -20 2 -20 -39 0 -25
-4 -46 -10 -46 -5 0 -10 24 -10 53 -1 46 -5 57 -40 96 l-40 44 0 -67 c0 -64
-1 -66 -25 -66 l-25 0 0 133 c-1 114 -2 130 -14 114 -14 -17 -16 -18 -47 -1
-25 12 -48 15 -92 11 -33 -3 -63 -10 -66 -15 -11 -18 -35 -17 -64 2 -23 16
-32 17 -54 7 -19 -9 -29 -9 -39 0 -22 18 -178 8 -201 -14 -19 -17 -21 -16 -46
3 -34 27 -78 26 -104 -2 -11 -13 -30 -53 -43 -90 -23 -72 -30 -77 -88 -62 -21
6 -22 10 -16 63 5 48 3 60 -16 84 -24 31 -51 35 -75 11 -12 -13 -19 -14 -28
-5 -14 14 -52 14 -78 1 -14 -8 -25 -7 -41 5 -30 20 -54 19 -70 -3 -23 -32 -47
-34 -71 -6 -19 22 -26 24 -50 15 -15 -6 -30 -19 -34 -28 -15 -43 -53 -53 -53
-13 0 20 -30 50 -51 50 -8 0 -24 -7 -36 -15 -18 -13 -22 -13 -33 0 -14 17 -43
19 -70 5 -17 -9 -20 -5 -27 32 -7 35 -13 43 -38 50 -48 12 -75 -12 -75 -70 0
-34 -3 -43 -10 -32 -5 8 -10 11 -10 5 0 -5 -24 16 -53 48 -52 55 -87 71 -102
46 -5 -6 -12 -4 -21 8 -12 16 -13 14 -14 -19z m407 -155 c-4 -38 -7 -89 -7
-115 0 -44 -2 -48 -25 -48 l-25 0 0 115 0 115 31 0 32 0 -6 -67z m104 25 c-3
-35 -5 -39 -12 -22 -4 12 -13 25 -19 29 -6 3 -1 -10 10 -30 14 -25 20 -54 20
-100 0 -63 -1 -65 -25 -65 l-25 0 0 115 0 115 28 0 c26 0 27 -2 23 -42z m152
-70 c-3 -113 -3 -113 -28 -116 -24 -3 -25 -1 -25 47 l0 51 -35 0 c-30 0 -35 3
-35 24 0 23 3 24 35 19 l35 -6 0 47 c0 44 1 46 28 46 l27 0 -2 -112z m149 -3
c-3 -114 -3 -115 -28 -115 -23 0 -24 3 -24 65 l0 65 -31 -7 c-21 -4 -34 -1
-40 8 -18 28 -10 39 31 39 38 0 40 2 40 30 0 26 4 30 28 30 l27 0 -3 -115z
m110 0 c-3 -114 -4 -115 -27 -115 -23 0 -24 1 -27 115 l-3 115 30 0 30 0 -3
-115z m105 25 l-5 -90 54 0 c54 0 59 -4 48 -34 -5 -13 -22 -16 -80 -16 l-74 0
0 115 0 115 31 0 31 0 -5 -90z m300 -7 c62 -143 60 -133 26 -133 -20 0 -31 7
-38 23 -7 15 -20 23 -42 25 -18 2 -33 6 -33 10 0 14 16 30 32 33 16 4 16 7 -1
44 l-17 40 -13 -35 c-8 -19 -21 -57 -31 -85 -14 -41 -22 -51 -43 -53 -15 -2
-27 1 -27 7 0 16 23 65 35 73 5 4 10 15 10 25 0 10 8 42 18 71 17 48 21 52 50
52 31 0 34 -3 74 -97z m223 72 c0 -21 -5 -25 -30 -25 l-30 0 0 -65 c0 -63 -1
-65 -20 -55 -15 8 -20 8 -20 -1 0 -6 9 -13 20 -16 11 -3 20 -14 20 -24 0 -14
-7 -19 -30 -19 l-30 0 5 90 4 90 -39 0 c-36 0 -40 3 -40 25 0 25 0 25 95 25
95 0 95 0 95 -25z m100 -92 c-1 -86 -3 -113 -11 -100 -5 9 -8 21 -5 26 3 4 -1
17 -9 27 -10 12 -14 14 -11 4 17 -60 16 -70 -3 -70 -18 0 -19 8 -19 115 l0
115 29 0 29 0 0 -117z m212 100 c15 -13 18 -31 18 -98 0 -96 -7 -106 -78 -112
-38 -4 -53 -1 -74 17 -26 20 -28 26 -28 97 0 98 12 113 88 113 38 0 61 -5 74
-17z m-463 -84 c6 -18 11 -33 11 -34 0 -1 -8 -2 -17 -2 -22 0 -33 15 -33 45 0
33 26 27 39 -9z"/>
<path d="M2222 1283 c2 -28 8 -47 16 -49 7 -1 8 0 2 3 -5 2 -10 17 -10 33 0
24 5 29 36 35 43 8 40 14 -10 20 l-37 5 3 -47z"/>
<path d="M467 1412 c-11 -12 -13 -22 -7 -28 11 -11 2 -54 -13 -54 -5 0 -21 12
-35 28 -13 15 -22 22 -18 15 3 -6 1 -13 -5 -15 -17 -6 1 -36 24 -41 12 -2 -43
-5 -123 -6 -132 -2 -142 -4 -115 -16 17 -8 25 -14 20 -15 -6 0 -16 -9 -23 -21
-12 -18 -11 -19 7 -10 12 7 53 8 111 4 108 -7 100 -23 -9 -18 -93 5 -125 -9
-49 -21 l53 -8 -42 -4 c-24 -2 -43 -7 -43 -13 0 -5 48 -9 112 -9 61 0 109 2
106 5 -3 3 -34 10 -69 14 l-64 8 62 2 c39 1 63 6 66 14 3 8 7 6 12 -5 17 -42
2 -48 -117 -49 -134 0 -118 -19 19 -21 67 -1 87 3 103 17 24 22 37 13 42 -29
4 -36 31 -55 55 -40 10 6 27 29 39 52 12 22 25 38 29 34 4 -4 5 2 1 13 -3 11
-2 26 3 34 7 11 13 7 27 -15 23 -35 105 -116 112 -109 3 2 -36 59 -87 125
l-91 121 0 -91 c0 -77 -3 -92 -17 -97 -25 -9 -34 -26 -20 -35 9 -6 8 -10 -3
-18 -18 -12 -36 -7 -33 8 5 21 5 303 1 308 -3 2 -12 -4 -21 -14z m-17 -117 c0
-8 -7 -15 -16 -15 -8 0 -12 -4 -9 -10 3 -5 2 -10 -4 -10 -5 0 -13 5 -16 10 -3
6 -30 9 -58 8 l-52 -1 55 -7 55 -7 -51 -1 c-29 -1 -64 4 -80 13 -37 19 -21 24
86 28 47 2 86 4 88 5 1 1 2 -5 2 -13z"/>
<path d="M352 1365 c-12 -25 -36 -30 -127 -25 -17 0 -41 -3 -55 -9 -19 -7 4
-10 93 -10 72 -1 117 3 117 9 0 6 -7 10 -17 10 -15 0 -15 2 1 19 10 10 13 22
8 25 -5 3 -14 -6 -20 -19z"/>
<path d="M2645 1300 c7 -12 104 -12 160 -1 32 7 19 9 -63 10 -67 1 -101 -3
-97 -9z"/>
<path d="M1031 1117 c-1 -25 18 -59 30 -52 12 8 12 52 0 59 -5 4 -7 -3 -4 -14
3 -11 1 -20 -5 -20 -6 0 -13 10 -15 23 -3 16 -5 17 -6 4z"/>
<path d="M2126 1045 c-31 -31 -59 -67 -62 -80 -9 -37 12 -57 51 -49 27 5 35 1
57 -28 42 -55 91 -98 111 -98 25 0 65 32 59 48 -2 7 1 18 7 26 8 9 -1 25 -37
63 -26 27 -58 55 -71 62 -20 11 -22 18 -18 49 l6 37 -19 -24 c-11 -12 -17 -27
-14 -32 3 -5 1 -8 -4 -7 -6 2 -31 -19 -56 -46 -25 -28 -49 -47 -53 -43 -4 4
15 31 43 60 49 52 49 52 4 9 -63 -58 -75 -53 -15 8 26 27 52 47 56 45 4 -3 13
3 20 13 13 15 12 16 -3 3 -10 -7 -18 -9 -18 -3 0 14 25 33 33 25 4 -3 7 -1 7
5 0 26 -31 10 -84 -43z m184 -204 c-7 -17 -16 -31 -20 -31 -5 0 -33 28 -63 63
l-56 62 22 23 21 23 55 -55 c53 -53 54 -55 41 -85z"/>
<path d="M2540 965 c-8 -10 -9 -19 -4 -24 15 -14 62 -22 69 -11 4 6 3 10 -2 9
-26 -4 -63 3 -63 12 0 7 14 10 36 7 32 -4 34 -3 18 9 -23 17 -39 16 -54 -2z"/>
<path d="M1056 908 c3 -4 38 -8 77 -9 109 -1 131 -17 27 -20 l-85 -2 75 -7
c81 -8 113 2 88 27 -15 14 -191 25 -182 11z"/>
<path d="M1845 913 c-34 -5 -68 -37 -77 -71 -6 -22 -5 -23 42 -27 8 0 21 -4
28 -8 8 -6 12 -1 13 15 0 22 1 22 9 3 5 -11 9 -14 9 -7 1 6 10 12 21 12 11 0
19 6 18 13 -2 7 10 13 29 15 29 3 70 32 45 32 -6 0 -14 -4 -17 -10 -3 -5 -14
-10 -23 -10 -13 0 -12 5 8 21 23 19 23 20 3 14 -12 -3 -24 -1 -28 5 -6 10 -24
11 -80 3z m71 -14 c9 -15 -3 -24 -68 -53 -47 -21 -57 -22 -62 -10 -4 10 12 23
52 44 65 33 68 34 78 19z"/>
<path d="M797 869 c-31 -18 -16 -63 31 -88 31 -17 27 0 -8 34 -34 33 -38 45
-12 45 17 0 48 -37 44 -52 -1 -5 3 -8 8 -8 16 0 11 36 -7 52 -29 24 -37 27
-56 17z"/>
<path d="M2494 816 c-8 -22 2 -46 20 -46 19 0 30 17 16 25 -5 3 -10 1 -10 -4
0 -6 -4 -11 -10 -11 -5 0 -10 9 -10 20 0 14 7 20 24 20 13 0 27 -5 29 -10 3
-6 4 -5 3 2 -4 20 -55 22 -62 4z"/>
<path d="M1051 765 c-1 -6 -15 -12 -33 -13 -34 -3 -61 -19 -53 -32 3 -5 -1
-11 -7 -13 -8 -3 -6 -6 5 -6 9 -1 17 -7 17 -14 0 -8 10 -18 23 -24 33 -17 139
-42 162 -40 22 2 62 42 71 70 7 22 6 23 -26 31 -25 6 -25 6 -2 -5 27 -15 27
-17 -4 -53 l-25 -28 -57 21 c-32 12 -66 19 -75 15 -10 -3 -17 -1 -17 5 0 6
-15 18 -32 27 -30 15 -31 18 -13 24 11 4 22 4 25 0 3 -4 21 -10 40 -13 46 -7
110 -30 110 -39 0 -13 27 -9 39 6 9 11 8 15 -6 22 -10 4 -22 8 -28 9 -5 1 -27
9 -49 18 -21 9 -42 17 -46 17 -5 0 -11 6 -13 13 -3 6 -6 7 -6 2z"/>
</g>
</svg>
